<?xml version="1.0" encoding="utf-8"?>
<!-- Generator: Adobe Illustrator 16.0.0, SVG Export Plug-In . SVG Version: 6.00 Build 0)  -->
<!DOCTYPE svg PUBLIC "-//W3C//DTD SVG 1.1//EN" "http://www.w3.org/Graphics/SVG/1.1/DTD/svg11.dtd">
<svg version="1.1" id="Ebene_1" xmlns="http://www.w3.org/2000/svg" xmlns:xlink="http://www.w3.org/1999/xlink" x="0px" y="0px"
	 width="200px" height="102px" viewBox="0 0 200 102" enable-background="new 0 0 200 102" xml:space="preserve">
<g>
	<path fill="#161615" d="M0.955,81.826V70.275H5.2c0.864,0,1.558,0.115,2.083,0.351c0.522,0.235,0.928,0.594,1.227,1.079
		c0.294,0.486,0.442,0.992,0.442,1.525c0,0.494-0.131,0.956-0.394,1.395c-0.259,0.435-0.657,0.789-1.187,1.056
		c0.685,0.203,1.211,0.554,1.577,1.047c0.371,0.494,0.554,1.08,0.554,1.749c0,0.542-0.111,1.048-0.334,1.51
		c-0.227,0.466-0.502,0.824-0.833,1.075c-0.331,0.255-0.741,0.442-1.239,0.573c-0.498,0.128-1.107,0.191-1.828,0.191H0.955z
		 M2.452,75.131h2.445c0.666,0,1.143-0.048,1.43-0.136c0.382-0.115,0.669-0.307,0.86-0.577c0.195-0.267,0.291-0.602,0.291-1.008
		c0-0.383-0.091-0.721-0.271-1.012c-0.179-0.291-0.438-0.49-0.772-0.598s-0.908-0.163-1.721-0.163H2.452V75.131z M2.452,80.464
		h2.816c0.486,0,0.824-0.02,1.02-0.056c0.347-0.063,0.633-0.167,0.868-0.314c0.231-0.147,0.422-0.362,0.57-0.642
		c0.151-0.282,0.223-0.605,0.223-0.976c0-0.431-0.108-0.805-0.323-1.123c-0.215-0.314-0.518-0.538-0.9-0.669
		c-0.382-0.128-0.936-0.191-1.657-0.191H2.452V80.464z"/>
</g>
<g>
	<path fill="#161615" d="M16.739,80.795c-0.518,0.445-1.011,0.761-1.489,0.943c-0.474,0.188-0.984,0.279-1.53,0.279
		c-0.904,0-1.597-0.228-2.079-0.674c-0.486-0.449-0.725-1.023-0.725-1.725c0-0.41,0.091-0.784,0.275-1.123
		c0.179-0.338,0.422-0.609,0.717-0.812c0.295-0.207,0.629-0.362,1-0.466c0.271-0.075,0.685-0.144,1.235-0.215
		c1.123-0.136,1.948-0.299,2.481-0.486c0.004-0.195,0.008-0.318,0.008-0.37c0-0.577-0.131-0.988-0.394-1.223
		c-0.358-0.318-0.884-0.482-1.585-0.482c-0.653,0-1.135,0.12-1.446,0.351c-0.314,0.235-0.542,0.649-0.693,1.243l-1.358-0.188
		c0.124-0.594,0.327-1.075,0.609-1.441c0.283-0.363,0.693-0.646,1.227-0.841c0.538-0.199,1.155-0.295,1.864-0.295
		c0.697,0,1.267,0.084,1.705,0.251c0.438,0.168,0.761,0.379,0.964,0.634c0.208,0.255,0.351,0.577,0.435,0.968
		c0.047,0.238,0.067,0.677,0.067,1.307v1.892c0,1.318,0.032,2.15,0.092,2.501c0.06,0.351,0.175,0.686,0.351,1.004h-1.454
		C16.871,81.531,16.779,81.188,16.739,80.795z M16.624,77.628c-0.506,0.207-1.263,0.387-2.271,0.534
		c-0.573,0.083-0.976,0.179-1.215,0.282c-0.235,0.107-0.418,0.259-0.549,0.462c-0.127,0.203-0.191,0.427-0.191,0.674
		c0,0.378,0.14,0.692,0.422,0.947c0.279,0.251,0.689,0.379,1.23,0.379c0.534,0,1.012-0.119,1.43-0.358
		c0.414-0.239,0.721-0.565,0.916-0.984c0.151-0.318,0.227-0.792,0.227-1.418V77.628z"/>
</g>
<g>
	<path fill="#161615" d="M19.643,85.049l-0.151-1.331c0.303,0.084,0.57,0.128,0.792,0.128c0.311,0,0.558-0.052,0.745-0.159
		c0.183-0.104,0.334-0.251,0.454-0.442c0.087-0.14,0.227-0.494,0.426-1.056c0.024-0.079,0.064-0.195,0.124-0.347l-3.115-8.384h1.498
		l1.708,4.848c0.219,0.613,0.418,1.258,0.593,1.939c0.16-0.653,0.351-1.291,0.574-1.908l1.752-4.879h1.39l-3.123,8.512
		c-0.334,0.92-0.594,1.553-0.777,1.899c-0.247,0.466-0.53,0.809-0.853,1.028c-0.318,0.219-0.697,0.326-1.143,0.326
		C20.272,85.224,19.973,85.164,19.643,85.049z"/>
</g>
<g>
	<path fill="#161615" d="M32.918,79.134l1.438,0.179c-0.227,0.856-0.645,1.521-1.259,1.996c-0.613,0.47-1.397,0.709-2.35,0.709
		c-1.199,0-2.15-0.379-2.852-1.132c-0.705-0.752-1.056-1.812-1.056-3.174c0-1.406,0.354-2.497,1.067-3.278
		c0.709-0.776,1.629-1.163,2.765-1.163c1.095,0,1.991,0.379,2.688,1.14c0.692,0.765,1.039,1.836,1.039,3.218
		c0,0.084,0,0.207-0.008,0.379h-6.114c0.052,0.92,0.307,1.621,0.765,2.11c0.458,0.49,1.028,0.733,1.713,0.733
		c0.51,0,0.944-0.136,1.307-0.41C32.42,80.165,32.707,79.731,32.918,79.134z M28.354,76.84h4.58
		c-0.063-0.705-0.234-1.231-0.525-1.586c-0.442-0.545-1.016-0.82-1.721-0.82c-0.642,0-1.175,0.22-1.613,0.657
		C28.64,75.525,28.401,76.11,28.354,76.84z"/>
</g>
<g>
	<path fill="#161615" d="M36.08,81.826v-8.368h1.251v1.271c0.318-0.594,0.613-0.987,0.884-1.175
		c0.271-0.191,0.566-0.283,0.893-0.283c0.466,0,0.944,0.151,1.426,0.454l-0.478,1.318c-0.339-0.207-0.678-0.307-1.02-0.307
		c-0.303,0-0.578,0.092-0.817,0.279c-0.242,0.187-0.414,0.445-0.518,0.776c-0.155,0.502-0.23,1.056-0.23,1.653v4.381H36.08z"/>
</g>
<g>
	<path fill="#161615" d="M41.601,71.904v-1.629h1.391v1.629H41.601z M41.601,81.826v-8.368h1.391v8.368H41.601z"/>
</g>
<g>
	<path fill="#161615" d="M44.548,79.329l1.374-0.22c0.076,0.562,0.291,0.992,0.646,1.291c0.351,0.299,0.845,0.45,1.478,0.45
		c0.642,0,1.111-0.132,1.422-0.398s0.462-0.577,0.462-0.932c0-0.323-0.135-0.574-0.406-0.757c-0.19-0.128-0.665-0.287-1.422-0.482
		c-1.02-0.263-1.729-0.49-2.118-0.681c-0.395-0.191-0.693-0.458-0.896-0.797s-0.307-0.713-0.307-1.123
		c0-0.375,0.083-0.717,0.251-1.036c0.167-0.318,0.395-0.581,0.685-0.792c0.216-0.163,0.51-0.299,0.885-0.414
		c0.37-0.112,0.772-0.168,1.198-0.168c0.646,0,1.211,0.092,1.697,0.283C49.98,73.741,50.34,74,50.57,74.322
		c0.231,0.322,0.391,0.753,0.478,1.295l-1.357,0.19c-0.06-0.43-0.239-0.769-0.538-1.012c-0.295-0.238-0.713-0.362-1.255-0.362
		c-0.637,0-1.091,0.107-1.366,0.327c-0.271,0.215-0.41,0.466-0.41,0.752c0,0.188,0.06,0.351,0.172,0.498
		c0.115,0.151,0.29,0.279,0.533,0.379c0.14,0.052,0.55,0.175,1.227,0.362c0.984,0.267,1.669,0.486,2.06,0.657
		c0.387,0.171,0.693,0.422,0.916,0.745c0.219,0.326,0.331,0.732,0.331,1.215c0,0.474-0.136,0.916-0.406,1.334
		c-0.271,0.418-0.661,0.74-1.171,0.972c-0.506,0.227-1.084,0.343-1.729,0.343c-1.063,0-1.876-0.228-2.438-0.678
		C45.058,80.886,44.703,80.217,44.548,79.329z"/>
</g>
<g>
	<path fill="#161615" d="M58.365,78.764l1.366,0.179c-0.151,0.96-0.534,1.713-1.147,2.259c-0.617,0.541-1.37,0.816-2.267,0.816
		c-1.123,0-2.022-0.375-2.708-1.123c-0.681-0.749-1.023-1.824-1.023-3.219c0-0.904,0.147-1.696,0.442-2.374
		c0.294-0.677,0.74-1.187,1.338-1.525c0.602-0.338,1.255-0.506,1.96-0.506c0.888,0,1.616,0.228,2.187,0.689
		c0.565,0.458,0.928,1.111,1.087,1.955l-1.35,0.216c-0.132-0.562-0.359-0.988-0.686-1.271c-0.326-0.283-0.721-0.427-1.187-0.427
		c-0.697,0-1.267,0.259-1.705,0.769c-0.438,0.514-0.657,1.322-0.657,2.434c0,1.124,0.211,1.94,0.634,2.45
		c0.422,0.51,0.972,0.765,1.652,0.765c0.546,0,1-0.172,1.366-0.514C58.034,79.998,58.266,79.473,58.365,78.764z"/>
</g>
<g>
	<path fill="#161615" d="M60.922,81.826V70.275h1.391v4.143c0.645-0.765,1.466-1.147,2.453-1.147c0.609,0,1.135,0.12,1.585,0.366
		c0.446,0.243,0.765,0.582,0.96,1.012c0.191,0.431,0.291,1.056,0.291,1.876v5.302h-1.39v-5.302c0-0.709-0.151-1.227-0.454-1.549
		c-0.299-0.322-0.726-0.486-1.279-0.486c-0.41,0-0.796,0.111-1.158,0.327c-0.367,0.219-0.626,0.514-0.777,0.888
		c-0.155,0.375-0.23,0.889-0.23,1.546v4.576H60.922z"/>
</g>
<g>
	<path fill="#161615" d="M75.328,79.134l1.435,0.179c-0.228,0.856-0.646,1.521-1.259,1.996c-0.613,0.47-1.395,0.709-2.346,0.709
		c-1.199,0-2.151-0.379-2.856-1.132c-0.701-0.752-1.051-1.812-1.051-3.174c0-1.406,0.354-2.497,1.063-3.278
		c0.713-0.776,1.633-1.163,2.764-1.163c1.1,0,1.995,0.379,2.688,1.14c0.697,0.765,1.044,1.836,1.044,3.218
		c0,0.084-0.004,0.207-0.009,0.379h-6.117c0.052,0.92,0.307,1.621,0.765,2.11c0.458,0.49,1.031,0.733,1.717,0.733
		c0.51,0,0.943-0.136,1.302-0.41C74.831,80.165,75.117,79.731,75.328,79.134z M70.764,76.84h4.577
		c-0.061-0.705-0.235-1.231-0.522-1.586c-0.445-0.545-1.02-0.82-1.725-0.82c-0.637,0-1.175,0.22-1.608,0.657
		C71.051,75.525,70.808,76.11,70.764,76.84z"/>
</g>
<g>
	<path fill="#161615" d="M78.491,81.826v-8.368h1.25v1.271c0.319-0.594,0.614-0.987,0.885-1.175
		c0.271-0.191,0.569-0.283,0.892-0.283c0.471,0,0.944,0.151,1.431,0.454l-0.479,1.318c-0.342-0.207-0.681-0.307-1.02-0.307
		c-0.307,0-0.577,0.092-0.82,0.279c-0.243,0.187-0.414,0.445-0.518,0.776c-0.151,0.502-0.231,1.056-0.231,1.653v4.381H78.491z"/>
</g>
<g>
	<path fill="#161615" d="M88.72,81.826V70.275h4.245c0.864,0,1.558,0.115,2.083,0.351c0.522,0.235,0.929,0.594,1.228,1.079
		c0.294,0.486,0.441,0.992,0.441,1.525c0,0.494-0.131,0.956-0.394,1.395c-0.26,0.435-0.657,0.789-1.188,1.056
		c0.686,0.203,1.211,0.554,1.577,1.047c0.371,0.494,0.554,1.08,0.554,1.749c0,0.542-0.111,1.048-0.334,1.51
		c-0.228,0.466-0.502,0.824-0.833,1.075c-0.33,0.255-0.74,0.442-1.238,0.573c-0.498,0.128-1.107,0.191-1.828,0.191H88.72z
		 M90.217,75.131h2.445c0.665,0,1.144-0.048,1.431-0.136c0.382-0.115,0.669-0.307,0.859-0.577c0.195-0.267,0.291-0.602,0.291-1.008
		c0-0.383-0.092-0.721-0.271-1.012c-0.18-0.291-0.438-0.49-0.772-0.598c-0.335-0.107-0.908-0.163-1.721-0.163h-2.263V75.131z
		 M90.217,80.464h2.816c0.485,0,0.824-0.02,1.02-0.056c0.347-0.063,0.633-0.167,0.868-0.314c0.23-0.147,0.422-0.362,0.569-0.642
		c0.151-0.282,0.223-0.605,0.223-0.976c0-0.431-0.107-0.805-0.322-1.123c-0.215-0.314-0.518-0.538-0.9-0.669
		c-0.382-0.128-0.936-0.191-1.656-0.191h-2.617V80.464z"/>
</g>
<g>
	<path fill="#161615" d="M99.119,81.826V70.275h1.39v11.551H99.119z"/>
</g>
<g>
	<path fill="#161615" d="M102.668,71.904v-1.629h1.39v1.629H102.668z M102.668,81.826v-8.368h1.39v8.368H102.668z"/>
</g>
<g>
	<path fill="#161615" d="M106.173,81.826v-8.368h1.25v1.19c0.602-0.92,1.475-1.378,2.609-1.378c0.498,0,0.952,0.088,1.366,0.271
		c0.414,0.179,0.725,0.418,0.928,0.713c0.207,0.294,0.351,0.641,0.435,1.047c0.052,0.263,0.075,0.722,0.075,1.378v5.146h-1.39v-5.09
		c0-0.578-0.052-1.008-0.159-1.295c-0.112-0.287-0.303-0.518-0.578-0.685c-0.274-0.172-0.598-0.26-0.968-0.26
		c-0.594,0-1.104,0.191-1.533,0.578c-0.431,0.382-0.646,1.111-0.646,2.183v4.568H106.173z"/>
</g>
<g>
	<path fill="#161615" d="M120.284,81.826v-1.056c-0.521,0.833-1.286,1.247-2.294,1.247c-0.653,0-1.255-0.184-1.805-0.554
		c-0.545-0.366-0.972-0.881-1.274-1.542c-0.299-0.657-0.45-1.413-0.45-2.27c0-0.837,0.136-1.594,0.41-2.274
		c0.271-0.682,0.682-1.203,1.228-1.565c0.545-0.362,1.154-0.542,1.832-0.542c0.493,0,0.932,0.104,1.318,0.319
		c0.386,0.211,0.701,0.489,0.943,0.828v-4.143h1.383v11.551H120.284z M115.891,77.652c0,1.071,0.22,1.872,0.662,2.401
		c0.445,0.529,0.968,0.797,1.568,0.797c0.61,0,1.124-0.255,1.55-0.761c0.422-0.506,0.638-1.283,0.638-2.322
		c0-1.144-0.22-1.983-0.649-2.521c-0.435-0.533-0.964-0.805-1.598-0.805c-0.621,0-1.135,0.259-1.549,0.773
		C116.099,75.732,115.891,76.541,115.891,77.652z"/>
</g>
<g>
	<path fill="#161615" d="M129.373,79.134l1.435,0.179c-0.228,0.856-0.646,1.521-1.259,1.996c-0.613,0.47-1.395,0.709-2.346,0.709
		c-1.199,0-2.151-0.379-2.856-1.132c-0.701-0.752-1.051-1.812-1.051-3.174c0-1.406,0.354-2.497,1.063-3.278
		c0.713-0.776,1.633-1.163,2.764-1.163c1.1,0,1.995,0.379,2.688,1.14c0.697,0.765,1.044,1.836,1.044,3.218
		c0,0.084-0.004,0.207-0.008,0.379h-6.118c0.052,0.92,0.307,1.621,0.765,2.11c0.458,0.49,1.031,0.733,1.717,0.733
		c0.51,0,0.943-0.136,1.302-0.41C128.876,80.165,129.162,79.731,129.373,79.134z M124.809,76.84h4.577
		c-0.061-0.705-0.235-1.231-0.522-1.586c-0.445-0.545-1.02-0.82-1.725-0.82c-0.637,0-1.175,0.22-1.608,0.657
		C125.096,75.525,124.853,76.11,124.809,76.84z"/>
</g>
<g>
	<path fill="#161615" d="M132.548,81.826v-8.368h1.251v1.19c0.602-0.92,1.474-1.378,2.608-1.378c0.498,0,0.952,0.088,1.366,0.271
		c0.414,0.179,0.725,0.418,0.928,0.713c0.208,0.294,0.351,0.641,0.435,1.047c0.052,0.263,0.075,0.722,0.075,1.378v5.146h-1.39v-5.09
		c0-0.578-0.052-1.008-0.159-1.295c-0.111-0.287-0.303-0.518-0.577-0.685c-0.275-0.172-0.598-0.26-0.969-0.26
		c-0.593,0-1.103,0.191-1.533,0.578c-0.43,0.382-0.646,1.111-0.646,2.183v4.568H132.548z"/>
</g>
<g>
	<path fill="#161615" d="M140.801,78.361v-1.426h4.273v1.426H140.801z"/>
</g>
<g>
	<path fill="#161615" d="M156.816,81.826V80.6c-0.642,0.943-1.51,1.418-2.605,1.418c-0.481,0-0.936-0.096-1.354-0.283
		c-0.423-0.191-0.733-0.43-0.937-0.717c-0.203-0.283-0.347-0.633-0.426-1.052c-0.06-0.278-0.088-0.717-0.088-1.322v-5.186h1.39v4.64
		c0,0.741,0.028,1.243,0.088,1.498c0.088,0.374,0.271,0.669,0.554,0.88c0.283,0.212,0.634,0.319,1.052,0.319
		s0.809-0.107,1.175-0.327c0.362-0.219,0.621-0.514,0.772-0.892c0.155-0.375,0.231-0.921,0.231-1.634v-4.484h1.39v8.368H156.816z"/>
</g>
<g>
	<path fill="#161615" d="M160.233,81.826v-8.368h1.251v1.19c0.602-0.92,1.47-1.378,2.608-1.378c0.494,0,0.948,0.088,1.362,0.271
		c0.414,0.179,0.725,0.418,0.933,0.713c0.207,0.294,0.35,0.641,0.43,1.047c0.052,0.263,0.08,0.722,0.08,1.378v5.146h-1.391v-5.09
		c0-0.578-0.056-1.008-0.163-1.295s-0.299-0.518-0.573-0.685c-0.279-0.172-0.602-0.26-0.973-0.26c-0.589,0-1.103,0.191-1.533,0.578
		c-0.43,0.382-0.641,1.111-0.641,2.183v4.568H160.233z"/>
</g>
<g>
	<path fill="#161615" d="M174.345,81.826v-1.056c-0.521,0.833-1.286,1.247-2.294,1.247c-0.653,0-1.255-0.184-1.804-0.554
		c-0.546-0.366-0.973-0.881-1.274-1.542c-0.299-0.657-0.45-1.413-0.45-2.27c0-0.837,0.135-1.594,0.41-2.274
		c0.271-0.682,0.681-1.203,1.227-1.565s1.155-0.542,1.832-0.542c0.494,0,0.932,0.104,1.318,0.319
		c0.387,0.211,0.701,0.489,0.944,0.828v-4.143h1.382v11.551H174.345z M169.952,77.652c0,1.071,0.219,1.872,0.661,2.401
		c0.446,0.529,0.968,0.797,1.569,0.797c0.609,0,1.123-0.255,1.549-0.761c0.423-0.506,0.638-1.283,0.638-2.322
		c0-1.144-0.219-1.983-0.649-2.521c-0.434-0.533-0.964-0.805-1.597-0.805c-0.622,0-1.136,0.259-1.55,0.773
		C170.159,75.732,169.952,76.541,169.952,77.652z"/>
</g>
<g>
	<path fill="#161615" d="M0.504,96.324l1.41-0.128c0.067,0.578,0.223,1.052,0.47,1.423c0.243,0.37,0.622,0.673,1.139,0.899
		c0.514,0.228,1.091,0.343,1.737,0.343c0.569,0,1.075-0.088,1.513-0.259c0.438-0.176,0.765-0.414,0.976-0.713
		c0.215-0.303,0.323-0.634,0.323-0.992c0-0.362-0.104-0.677-0.311-0.947c-0.203-0.271-0.545-0.498-1.02-0.682
		c-0.303-0.123-0.976-0.311-2.015-0.565s-1.769-0.494-2.183-0.721c-0.542-0.287-0.944-0.646-1.21-1.075
		c-0.267-0.427-0.398-0.908-0.398-1.438c0-0.581,0.163-1.127,0.486-1.633c0.327-0.51,0.801-0.893,1.422-1.155
		c0.625-0.263,1.314-0.395,2.079-0.395c0.836,0,1.578,0.136,2.219,0.415c0.641,0.274,1.135,0.681,1.478,1.215
		c0.347,0.537,0.534,1.143,0.558,1.819l-1.438,0.112c-0.076-0.729-0.338-1.283-0.78-1.653c-0.446-0.374-1.104-0.562-1.976-0.562
		c-0.904,0-1.565,0.171-1.979,0.51c-0.415,0.339-0.622,0.745-0.622,1.223c0,0.418,0.147,0.757,0.438,1.027
		c0.291,0.268,1.043,0.542,2.258,0.821c1.219,0.282,2.055,0.529,2.509,0.736c0.657,0.311,1.144,0.705,1.458,1.179
		c0.314,0.479,0.47,1.024,0.47,1.646c0,0.613-0.171,1.19-0.518,1.736c-0.342,0.542-0.84,0.968-1.486,1.267
		c-0.645,0.303-1.374,0.454-2.183,0.454c-1.023,0-1.88-0.151-2.573-0.458c-0.693-0.303-1.235-0.761-1.629-1.374
		C0.731,97.79,0.524,97.097,0.504,96.324z"/>
</g>
<g>
	<path fill="#161615" d="M17.002,97.34l1.434,0.184c-0.227,0.856-0.645,1.518-1.258,1.991s-1.394,0.709-2.346,0.709
		c-1.199,0-2.151-0.374-2.855-1.131c-0.701-0.753-1.052-1.809-1.052-3.171c0-1.406,0.354-2.501,1.063-3.278
		c0.713-0.776,1.633-1.167,2.764-1.167c1.099,0,1.996,0.383,2.688,1.144c0.697,0.761,1.043,1.832,1.043,3.214
		c0,0.084-0.004,0.211-0.008,0.379h-6.118c0.052,0.92,0.307,1.625,0.765,2.11c0.458,0.49,1.032,0.733,1.717,0.733
		c0.51,0,0.944-0.136,1.302-0.406C16.504,98.375,16.791,97.938,17.002,97.34z M12.438,95.046h4.576
		c-0.06-0.701-0.235-1.231-0.521-1.581c-0.446-0.546-1.02-0.821-1.725-0.821c-0.637,0-1.175,0.22-1.609,0.653
		C12.724,93.735,12.481,94.316,12.438,95.046z"/>
</g>
<g>
	<path fill="#161615" d="M20.18,100.036V88.481h1.39v4.146c0.646-0.769,1.466-1.151,2.454-1.151c0.609,0,1.135,0.124,1.585,0.367
		c0.447,0.242,0.765,0.581,0.96,1.012c0.19,0.434,0.29,1.055,0.29,1.876v5.305h-1.39v-5.305c0-0.709-0.151-1.224-0.454-1.55
		c-0.299-0.322-0.725-0.482-1.278-0.482c-0.411,0-0.797,0.108-1.159,0.327c-0.367,0.219-0.625,0.514-0.777,0.884
		c-0.155,0.375-0.231,0.889-0.231,1.546v4.58H20.18z"/>
</g>
<g>
	<path fill="#161615" d="M30.253,100.036h-1.29V88.481h1.39v4.123c0.586-0.753,1.339-1.128,2.247-1.128
		c0.506,0,0.983,0.104,1.434,0.311c0.45,0.208,0.82,0.502,1.111,0.877c0.291,0.374,0.518,0.828,0.685,1.358
		c0.164,0.529,0.247,1.099,0.247,1.704c0,1.434-0.347,2.541-1.043,3.322c-0.693,0.784-1.53,1.175-2.502,1.175
		c-0.968,0-1.729-0.41-2.278-1.234V100.036z M30.237,95.786c0,1.004,0.136,1.729,0.402,2.175c0.438,0.733,1.027,1.096,1.776,1.096
		c0.605,0,1.131-0.267,1.573-0.805c0.442-0.542,0.665-1.342,0.665-2.41c0-1.091-0.211-1.899-0.637-2.417
		c-0.427-0.522-0.937-0.781-1.542-0.781s-1.131,0.271-1.573,0.809C30.46,93.99,30.237,94.767,30.237,95.786z"/>
</g>
<g>
	<path fill="#161615" d="M43.377,97.34l1.438,0.184c-0.228,0.856-0.646,1.518-1.259,1.991s-1.398,0.709-2.351,0.709
		c-1.198,0-2.15-0.374-2.852-1.131c-0.705-0.753-1.056-1.809-1.056-3.171c0-1.406,0.354-2.501,1.067-3.278
		c0.709-0.776,1.629-1.167,2.765-1.167c1.095,0,1.991,0.383,2.688,1.144c0.693,0.761,1.039,1.832,1.039,3.214
		c0,0.084,0,0.211-0.008,0.379h-6.113c0.052,0.92,0.307,1.625,0.765,2.11c0.458,0.49,1.027,0.733,1.713,0.733
		c0.51,0,0.943-0.136,1.306-0.406C42.879,98.375,43.166,97.938,43.377,97.34z M38.812,95.046h4.58
		c-0.063-0.701-0.234-1.231-0.525-1.581c-0.442-0.546-1.016-0.821-1.721-0.821c-0.641,0-1.175,0.22-1.613,0.653
		C39.1,93.735,38.86,94.316,38.812,95.046z"/>
</g>
<g>
	<path fill="#161615" d="M46.556,100.036V88.481h1.39v4.146c0.649-0.769,1.466-1.151,2.458-1.151c0.605,0,1.135,0.124,1.581,0.367
		c0.45,0.242,0.769,0.581,0.96,1.012c0.195,0.434,0.291,1.055,0.291,1.876v5.305h-1.391v-5.305c0-0.709-0.151-1.224-0.45-1.55
		c-0.303-0.322-0.729-0.482-1.278-0.482c-0.414,0-0.801,0.108-1.163,0.327s-0.621,0.514-0.776,0.884
		c-0.155,0.375-0.231,0.889-0.231,1.546v4.58H46.556z"/>
</g>
<g>
	<path fill="#161615" d="M55.354,90.114v-1.633h1.391v1.633H55.354z M55.354,100.036v-8.368h1.391v8.368H55.354z"/>
</g>
<g>
	<path fill="#161615" d="M58.859,100.036v-8.368h1.25v1.188c0.602-0.917,1.474-1.379,2.609-1.379c0.497,0,0.951,0.092,1.366,0.271
		c0.414,0.183,0.725,0.422,0.928,0.713c0.207,0.295,0.351,0.645,0.434,1.052c0.053,0.263,0.076,0.721,0.076,1.378v5.146h-1.39v-5.09
		c0-0.578-0.052-1.012-0.16-1.299c-0.111-0.286-0.303-0.514-0.577-0.685c-0.274-0.172-0.598-0.255-0.968-0.255
		c-0.594,0-1.104,0.19-1.533,0.573c-0.431,0.382-0.646,1.111-0.646,2.183v4.572H58.859z"/>
</g>
<g>
	<path fill="#161615" d="M72.971,100.036V98.98c-0.521,0.829-1.286,1.243-2.294,1.243c-0.653,0-1.255-0.184-1.805-0.55
		c-0.546-0.37-0.972-0.884-1.274-1.541c-0.299-0.661-0.45-1.418-0.45-2.274c0-0.837,0.136-1.594,0.41-2.274
		c0.271-0.677,0.682-1.199,1.227-1.562c0.546-0.362,1.155-0.546,1.832-0.546c0.494,0,0.933,0.107,1.318,0.319
		c0.387,0.215,0.701,0.489,0.944,0.832v-4.146h1.382v11.555H72.971z M68.577,95.858c0,1.071,0.22,1.872,0.661,2.405
		c0.446,0.53,0.968,0.793,1.569,0.793c0.609,0,1.123-0.251,1.55-0.761c0.422-0.506,0.637-1.278,0.637-2.318
		c0-1.146-0.219-1.987-0.648-2.521c-0.435-0.537-0.964-0.804-1.598-0.804c-0.621,0-1.135,0.259-1.549,0.772
		C68.784,93.938,68.577,94.751,68.577,95.858z"/>
</g>
<g>
	<path fill="#161615" d="M82.06,97.34l1.434,0.184c-0.227,0.856-0.645,1.518-1.258,1.991s-1.395,0.709-2.347,0.709
		c-1.198,0-2.15-0.374-2.855-1.131c-0.701-0.753-1.052-1.809-1.052-3.171c0-1.406,0.354-2.501,1.063-3.278
		c0.713-0.776,1.633-1.167,2.765-1.167c1.099,0,1.995,0.383,2.688,1.144c0.697,0.761,1.043,1.832,1.043,3.214
		c0,0.084-0.004,0.211-0.008,0.379h-6.117c0.052,0.92,0.307,1.625,0.765,2.11c0.458,0.49,1.031,0.733,1.717,0.733
		c0.51,0,0.943-0.136,1.302-0.406C81.562,98.375,81.849,97.938,82.06,97.34z M77.495,95.046h4.576
		c-0.06-0.701-0.234-1.231-0.521-1.581c-0.446-0.546-1.02-0.821-1.725-0.821c-0.637,0-1.175,0.22-1.609,0.653
		C77.782,93.735,77.539,94.316,77.495,95.046z"/>
</g>
<g>
	<path fill="#161615" d="M85.223,100.036v-8.368h1.25v1.267c0.319-0.594,0.613-0.983,0.885-1.175
		c0.271-0.188,0.565-0.283,0.892-0.283c0.466,0,0.944,0.151,1.426,0.458l-0.478,1.314c-0.339-0.203-0.677-0.307-1.02-0.307
		c-0.303,0-0.578,0.096-0.816,0.279c-0.243,0.187-0.414,0.446-0.518,0.776c-0.156,0.506-0.231,1.056-0.231,1.657v4.381H85.223z"/>
</g>
<g>
	<path fill="#161615" d="M94.164,98.766l0.199,1.255c-0.391,0.084-0.741,0.123-1.052,0.123c-0.502,0-0.896-0.079-1.171-0.242
		c-0.278-0.164-0.474-0.379-0.59-0.642c-0.111-0.267-0.171-0.824-0.171-1.677v-4.812h-1.016v-1.104h1.016v-2.075l1.386-0.849v2.924
		h1.398v1.104h-1.398v4.891c0,0.406,0.024,0.665,0.072,0.781c0.048,0.115,0.127,0.207,0.238,0.274
		c0.112,0.068,0.271,0.104,0.475,0.104C93.706,98.821,93.909,98.802,94.164,98.766z"/>
</g>
<g>
	<path fill="#161615" d="M101.139,97.34l1.434,0.184c-0.228,0.856-0.646,1.518-1.259,1.991s-1.395,0.709-2.346,0.709
		c-1.199,0-2.151-0.374-2.856-1.131c-0.7-0.753-1.051-1.809-1.051-3.171c0-1.406,0.354-2.501,1.063-3.278
		c0.713-0.776,1.633-1.167,2.764-1.167c1.1,0,1.995,0.383,2.688,1.144c0.697,0.761,1.044,1.832,1.044,3.214
		c0,0.084-0.004,0.211-0.008,0.379h-6.118c0.052,0.92,0.307,1.625,0.765,2.11c0.458,0.49,1.031,0.733,1.717,0.733
		c0.51,0,0.943-0.136,1.303-0.406C100.641,98.375,100.927,97.938,101.139,97.34z M96.573,95.046h4.577
		c-0.06-0.701-0.235-1.231-0.522-1.581c-0.445-0.546-1.02-0.821-1.725-0.821c-0.637,0-1.175,0.22-1.608,0.653
		C96.86,93.735,96.617,94.316,96.573,95.046z"/>
</g>
<g>
	<path fill="#161615" d="M104.316,100.036v-8.368h1.251v1.188c0.602-0.917,1.47-1.379,2.608-1.379c0.494,0,0.948,0.092,1.362,0.271
		c0.414,0.183,0.725,0.422,0.933,0.713c0.207,0.295,0.35,0.645,0.43,1.052c0.052,0.263,0.08,0.721,0.08,1.378v5.146h-1.391v-5.09
		c0-0.578-0.056-1.012-0.163-1.299c-0.107-0.286-0.299-0.514-0.573-0.685c-0.279-0.172-0.602-0.255-0.972-0.255
		c-0.59,0-1.104,0.19-1.534,0.573c-0.43,0.382-0.641,1.111-0.641,2.183v4.572H104.316z"/>
</g>
<g>
	<path fill="#161615" d="M114.39,100.036h-1.291V88.481h1.391v4.123c0.585-0.753,1.338-1.128,2.246-1.128
		c0.506,0,0.984,0.104,1.434,0.311c0.45,0.208,0.821,0.502,1.111,0.877c0.291,0.374,0.519,0.828,0.686,1.358
		c0.163,0.529,0.247,1.099,0.247,1.704c0,1.434-0.347,2.541-1.044,3.322c-0.693,0.784-1.529,1.175-2.501,1.175
		c-0.968,0-1.729-0.41-2.278-1.234V100.036z M114.374,95.786c0,1.004,0.135,1.729,0.401,2.175c0.438,0.733,1.028,1.096,1.777,1.096
		c0.604,0,1.131-0.267,1.573-0.805c0.441-0.542,0.665-1.342,0.665-2.41c0-1.091-0.211-1.899-0.638-2.417
		c-0.426-0.522-0.936-0.781-1.541-0.781s-1.132,0.271-1.573,0.809C114.597,93.99,114.374,94.767,114.374,95.786z"/>
</g>
<g>
	<path fill="#161615" d="M126.964,100.036v-1.23c-0.642,0.948-1.51,1.418-2.604,1.418c-0.482,0-0.937-0.096-1.354-0.283
		c-0.423-0.187-0.733-0.426-0.937-0.713c-0.203-0.286-0.346-0.637-0.426-1.052c-0.06-0.278-0.088-0.721-0.088-1.326v-5.182h1.391
		v4.641c0,0.74,0.027,1.238,0.087,1.497c0.088,0.375,0.271,0.665,0.554,0.876c0.283,0.216,0.634,0.323,1.052,0.323
		s0.809-0.111,1.175-0.331c0.362-0.215,0.621-0.514,0.772-0.888c0.155-0.375,0.231-0.92,0.231-1.637v-4.481h1.39v8.368H126.964z"/>
</g>
<g>
	<path fill="#161615" d="M130.381,100.036v-8.368h1.251v1.188c0.602-0.917,1.47-1.379,2.608-1.379c0.494,0,0.948,0.092,1.362,0.271
		c0.414,0.183,0.726,0.422,0.933,0.713c0.207,0.295,0.351,0.645,0.43,1.052c0.052,0.263,0.08,0.721,0.08,1.378v5.146h-1.391v-5.09
		c0-0.578-0.056-1.012-0.163-1.299c-0.107-0.286-0.299-0.514-0.573-0.685c-0.279-0.172-0.602-0.255-0.972-0.255
		c-0.59,0-1.104,0.19-1.534,0.573c-0.43,0.382-0.641,1.111-0.641,2.183v4.572H130.381z"/>
</g>
<g>
	<path fill="#161615" d="M144.493,100.036V98.98c-0.522,0.829-1.287,1.243-2.295,1.243c-0.652,0-1.254-0.184-1.804-0.55
		c-0.546-0.37-0.972-0.884-1.274-1.541c-0.299-0.661-0.45-1.418-0.45-2.274c0-0.837,0.135-1.594,0.41-2.274
		c0.271-0.677,0.681-1.199,1.227-1.562s1.155-0.546,1.832-0.546c0.494,0,0.933,0.107,1.318,0.319
		c0.387,0.215,0.701,0.489,0.944,0.832v-4.146h1.382v11.555H144.493z M140.1,95.858c0,1.071,0.219,1.872,0.661,2.405
		c0.446,0.53,0.968,0.793,1.569,0.793c0.609,0,1.123-0.251,1.55-0.761c0.422-0.506,0.637-1.278,0.637-2.318
		c0-1.146-0.219-1.987-0.649-2.521c-0.434-0.537-0.964-0.804-1.597-0.804c-0.621,0-1.136,0.259-1.55,0.772
		S140.1,94.751,140.1,95.858z"/>
</g>
<g>
	<path fill="#161615" d="M159.294,97.34l1.434,0.184c-0.228,0.856-0.646,1.518-1.259,1.991s-1.394,0.709-2.346,0.709
		c-1.199,0-2.151-0.374-2.856-1.131c-0.7-0.753-1.051-1.809-1.051-3.171c0-1.406,0.354-2.501,1.063-3.278
		c0.713-0.776,1.633-1.167,2.764-1.167c1.1,0,1.996,0.383,2.688,1.144c0.697,0.761,1.044,1.832,1.044,3.214
		c0,0.084-0.004,0.211-0.008,0.379h-6.118c0.052,0.92,0.307,1.625,0.765,2.11c0.458,0.49,1.031,0.733,1.717,0.733
		c0.51,0,0.944-0.136,1.303-0.406C158.796,98.375,159.082,97.938,159.294,97.34z M154.729,95.046h4.576
		c-0.06-0.701-0.235-1.231-0.521-1.581c-0.446-0.546-1.021-0.821-1.725-0.821c-0.638,0-1.176,0.22-1.609,0.653
		C155.016,93.735,154.772,94.316,154.729,95.046z"/>
</g>
<g>
	<path fill="#161615" d="M162.627,100.036v-1.617h1.586v1.617H162.627z"/>
</g>
<g>
	<path fill="#161615" d="M169.163,100.036l-4.385-11.555h1.621l2.943,8.393c0.234,0.673,0.434,1.307,0.594,1.892
		c0.175-0.629,0.378-1.259,0.609-1.892l3.059-8.393h1.529l-4.433,11.555H169.163z"/>
</g>
<g>
	<path fill="#161615" d="M173.84,100.036v-1.617h1.581v1.617H173.84z"/>
</g>
<g>
	<path fill="#161615" d="M0.7,23.349h14.044c2.78,0,4.851,0.115,6.217,0.346c1.366,0.233,2.589,0.715,3.668,1.45
		c1.079,0.734,1.975,1.715,2.697,2.938c0.717,1.221,1.079,2.591,1.079,4.108c0,1.646-0.442,3.156-1.326,4.53
		c-0.885,1.374-2.08,2.404-3.593,3.091c2.135,0.624,3.775,1.686,4.923,3.187c1.147,1.504,1.721,3.269,1.721,5.298
		c0,1.597-0.37,3.15-1.115,4.66c-0.741,1.509-1.757,2.718-3.043,3.618c-1.287,0.904-2.872,1.462-4.756,1.669
		c-1.183,0.127-4.035,0.207-8.555,0.239H0.7V23.349z M7.793,29.195v8.123h4.648c2.764,0,4.485-0.04,5.154-0.119
		c1.215-0.144,2.171-0.563,2.864-1.259c0.697-0.693,1.043-1.609,1.043-2.742c0-1.088-0.298-1.97-0.9-2.648
		c-0.598-0.68-1.49-1.092-2.673-1.235c-0.701-0.079-2.724-0.119-6.062-0.119H7.793z M7.793,43.167v9.37h6.576
		c2.561,0,4.186-0.071,4.875-0.215c1.056-0.191,1.916-0.657,2.581-1.4c0.661-0.738,0.996-1.732,0.996-2.975
		c0-1.052-0.259-1.944-0.769-2.677c-0.514-0.733-1.254-1.267-2.223-1.602c-0.968-0.334-3.067-0.502-6.301-0.502H7.793z"/>
</g>
<g>
	<path fill="#161615" d="M36.132,23.349h14.044c2.78,0,4.852,0.115,6.218,0.346c1.366,0.233,2.589,0.715,3.668,1.45
		c1.08,0.734,1.976,1.715,2.696,2.938c0.718,1.221,1.08,2.591,1.08,4.108c0,1.646-0.442,3.156-1.326,4.53
		c-0.885,1.374-2.079,2.404-3.593,3.091c2.135,0.624,3.775,1.686,4.923,3.187c1.146,1.504,1.721,3.269,1.721,5.298
		c0,1.597-0.371,3.15-1.115,4.66c-0.741,1.509-1.757,2.718-3.043,3.618c-1.287,0.904-2.872,1.462-4.756,1.669
		c-1.183,0.127-4.035,0.207-8.556,0.239H36.132V23.349z M43.226,29.195v8.123h4.648c2.764,0,4.484-0.04,5.154-0.119
		c1.214-0.144,2.17-0.563,2.863-1.259c0.697-0.693,1.044-1.609,1.044-2.742c0-1.088-0.299-1.97-0.9-2.648
		c-0.598-0.68-1.49-1.092-2.673-1.235c-0.701-0.079-2.725-0.119-6.062-0.119H43.226z M43.226,43.167v9.37h6.576
		c2.561,0,4.186-0.071,4.875-0.215c1.056-0.191,1.916-0.657,2.581-1.4c0.661-0.738,0.996-1.732,0.996-2.975
		c0-1.052-0.26-1.944-0.77-2.677c-0.514-0.733-1.254-1.267-2.222-1.602c-0.968-0.334-3.067-0.502-6.302-0.502H43.226z"/>
</g>
<g>
	<path fill="#161615" d="M69.744,47.049l6.902-0.671c0.415,2.315,1.259,4.019,2.529,5.104c1.267,1.088,2.983,1.63,5.139,1.63
		c2.286,0,4.007-0.482,5.166-1.45c1.158-0.966,1.736-2.095,1.736-3.39c0-0.83-0.243-1.537-0.733-2.121
		c-0.485-0.583-1.338-1.091-2.549-1.521c-0.832-0.288-2.725-0.798-5.68-1.535c-3.804-0.942-6.473-2.099-8.006-3.473
		c-2.154-1.935-3.234-4.29-3.234-7.07c0-1.79,0.506-3.463,1.521-5.021s2.478-2.744,4.386-3.559c1.907-0.814,4.214-1.223,6.914-1.223
		c4.409,0,7.728,0.968,9.958,2.899c2.227,1.934,3.397,4.515,3.509,7.741L90.209,33.7c-0.303-1.805-0.952-3.103-1.952-3.894
		c-0.999-0.791-2.497-1.187-4.492-1.187c-2.063,0-3.677,0.424-4.844,1.271c-0.749,0.543-1.123,1.271-1.123,2.181
		c0,0.83,0.351,1.541,1.052,2.133c0.896,0.75,3.066,1.533,6.52,2.348c3.449,0.814,6.003,1.659,7.655,2.529
		c1.653,0.87,2.948,2.062,3.884,3.57c0.937,1.51,1.402,3.376,1.402,5.597c0,2.013-0.558,3.897-1.677,5.655
		c-1.119,1.759-2.701,3.065-4.748,3.917c-2.043,0.856-4.593,1.283-7.644,1.283c-4.44,0-7.851-1.027-10.232-3.079
		C71.628,53.972,70.206,50.98,69.744,47.049z"/>
</g>
<g>
	<path fill="#161615" d="M104.301,23.349h14.044c2.78,0,4.852,0.115,6.218,0.346c1.365,0.233,2.589,0.715,3.668,1.45
		c1.079,0.734,1.976,1.715,2.696,2.938c0.717,1.221,1.079,2.591,1.079,4.108c0,1.646-0.441,3.156-1.326,4.53
		c-0.884,1.374-2.079,2.404-3.593,3.091c2.135,0.624,3.776,1.686,4.923,3.187c1.147,1.504,1.721,3.269,1.721,5.298
		c0,1.597-0.37,3.15-1.115,4.66c-0.74,1.509-1.756,2.718-3.043,3.618c-1.286,0.904-2.871,1.462-4.755,1.669
		c-1.184,0.127-4.035,0.207-8.556,0.239h-11.961V23.349z M111.395,29.195v8.123h4.647c2.765,0,4.485-0.04,5.154-0.119
		c1.215-0.144,2.171-0.563,2.864-1.259c0.696-0.693,1.043-1.609,1.043-2.742c0-1.088-0.299-1.97-0.9-2.648
		c-0.597-0.68-1.489-1.092-2.672-1.235c-0.701-0.079-2.725-0.119-6.062-0.119H111.395z M111.395,43.167v9.37h6.576
		c2.561,0,4.186-0.071,4.875-0.215c1.055-0.191,1.915-0.657,2.581-1.4c0.661-0.738,0.995-1.732,0.995-2.975
		c0-1.052-0.259-1.944-0.769-2.677c-0.514-0.733-1.255-1.267-2.223-1.602c-0.968-0.334-3.066-0.502-6.301-0.502H111.395z"/>
</g>
<g>
	<defs>
		<rect id="SVGID_1_" x="140.502" width="58.836" height="60.079"/>
	</defs>
	<clipPath id="SVGID_2_">
		<use xlink:href="#SVGID_1_"  overflow="visible"/>
	</clipPath>
</g>
<path fill="#008DDE" d="M155.115,6.135c0-2.679,2.163-4.844,4.844-4.844s4.843,2.166,4.843,4.844c0,2.681-2.162,4.845-4.843,4.845
	S155.115,8.815,155.115,6.135 M157.796,13.659c-0.824,1.443-0.207,5.463-1.55,13.401c-0.307,1.955-1.027,4.019-1.027,4.019
	c-1.441,5.564-10.308,19.789-13.092,24.531c-1.545,2.681,1.753,4.946,3.815,2.163c2.677-3.504,11.336-15.769,12.781-17.83
	c0.618-0.824,1.956-0.824,2.577,0.309c1.956,3.505,7.935,13.812,9.276,16.183c1.339,2.37,4.74,1.235,3.915-1.648
	c-1.031-3.609-10.618-22.678-8.555-26.388c1.031-1.752,3.608,1.649,6.906,4.947c0.928,0.928,2.059,1.238,2.577,0.207
	c0.41-0.824,0-1.753-1.032-2.991c-3.505-4.12-9.997-14.119-11.542-16.282C161.197,11.907,158.823,11.907,157.796,13.659
	 M177.276,34.48c-0.828-1.031-2.266,0.309-1.135,1.442c3.298,3.298,18.553,18.553,21.026,20.926
	c0.824,0.821,1.545-0.414,0.721-1.342C196.758,54.168,181.088,38.914,177.276,34.48"/>
</svg>
