<?xml version="1.0" encoding="utf-8"?>
<!-- Generator: Adobe Illustrator 16.0.0, SVG Export Plug-In . SVG Version: 6.00 Build 0)  -->
<!DOCTYPE svg PUBLIC "-//W3C//DTD SVG 1.1//EN" "http://www.w3.org/Graphics/SVG/1.1/DTD/svg11.dtd">
<svg version="1.1" id="Ebene_1" xmlns="http://www.w3.org/2000/svg" xmlns:xlink="http://www.w3.org/1999/xlink" x="0px" y="0px"
	 width="133px" height="41px" viewBox="33.5 9.25 133 41" enable-background="new 33.5 9.25 133 41" xml:space="preserve">
<g>
	<path fill="#FFFFFF" d="M34,25.011h9.384c1.858,0,3.242,0.08,4.155,0.24c0.913,0.162,1.729,0.495,2.45,1.003
		c0.721,0.508,1.321,1.187,1.802,2.032c0.48,0.845,0.721,1.793,0.721,2.842c0,1.14-0.294,2.185-0.885,3.135
		c-0.591,0.95-1.39,1.663-2.401,2.14c1.427,0.431,2.523,1.164,3.288,2.203c0.767,1.04,1.15,2.262,1.15,3.666
		c0,1.105-0.248,2.179-0.744,3.224c-0.497,1.046-1.175,1.881-2.035,2.503c-0.86,0.626-1.918,1.012-3.177,1.156
		c-0.791,0.087-2.696,0.143-5.717,0.164H34V25.011z M38.74,29.056v5.621h3.105c1.847,0,2.995-0.027,3.444-0.083
		c0.811-0.099,1.449-0.391,1.914-0.871c0.465-0.479,0.696-1.113,0.696-1.896c0-0.752-0.2-1.363-0.601-1.833
		s-0.995-0.755-1.785-0.854c-0.47-0.055-1.82-0.082-4.051-0.082H38.74V29.056z M38.74,38.723v6.483h4.394
		c1.711,0,2.797-0.049,3.256-0.148c0.705-0.133,1.28-0.456,1.724-0.969c0.443-0.511,0.666-1.199,0.666-2.059
		c0-0.727-0.171-1.345-0.514-1.853c-0.342-0.507-0.837-0.876-1.484-1.107c-0.646-0.23-2.05-0.346-4.209-0.346H38.74V38.723z"/>
</g>
<g>
	<path fill="#FFFFFF" d="M57.675,25.011h9.384c1.857,0,3.241,0.08,4.154,0.24c0.913,0.162,1.73,0.495,2.45,1.003
		c0.721,0.508,1.321,1.187,1.802,2.032c0.48,0.845,0.721,1.793,0.721,2.842c0,1.14-0.295,2.185-0.885,3.135
		c-0.591,0.95-1.39,1.663-2.401,2.14c1.427,0.431,2.523,1.164,3.289,2.203c0.766,1.04,1.149,2.262,1.149,3.666
		c0,1.105-0.247,2.179-0.744,3.224c-0.496,1.046-1.175,1.881-2.035,2.503c-0.859,0.626-1.918,1.012-3.177,1.156
		c-0.791,0.087-2.696,0.143-5.717,0.164h-7.991V25.011z M62.415,29.056v5.621h3.106c1.847,0,2.995-0.027,3.443-0.083
		c0.81-0.099,1.449-0.391,1.913-0.871c0.464-0.479,0.696-1.113,0.696-1.896c0-0.752-0.2-1.363-0.6-1.833
		c-0.4-0.469-0.995-0.755-1.786-0.854c-0.47-0.055-1.82-0.082-4.05-0.082h-2.723V29.056z M62.415,38.723v6.483h4.394
		c1.711,0,2.797-0.049,3.257-0.148c0.705-0.133,1.279-0.456,1.724-0.969c0.443-0.511,0.665-1.199,0.665-2.059
		c0-0.727-0.171-1.345-0.514-1.853c-0.342-0.507-0.837-0.876-1.484-1.107c-0.647-0.23-2.05-0.346-4.21-0.346h-3.833V38.723z"/>
</g>
<g>
	<path fill="#FFFFFF" d="M80.133,41.408l4.612-0.464c0.278,1.603,0.841,2.78,1.69,3.531c0.847,0.752,1.993,1.128,3.434,1.128
		c1.526,0,2.676-0.334,3.451-1.004c0.774-0.668,1.16-1.449,1.16-2.345c0-0.574-0.163-1.063-0.489-1.468
		c-0.324-0.403-0.894-0.755-1.704-1.052c-0.556-0.199-1.82-0.554-3.795-1.063c-2.54-0.652-4.323-1.452-5.348-2.403
		c-1.441-1.337-2.162-2.968-2.162-4.891c0-1.239,0.34-2.397,1.016-3.473c0.679-1.078,1.655-1.899,2.932-2.461
		c1.274-0.564,2.814-0.847,4.619-0.847c2.946,0,5.165,0.669,6.653,2.006c1.489,1.337,2.271,3.123,2.346,5.355l-4.74,0.215
		c-0.202-1.248-0.637-2.146-1.305-2.693c-0.667-0.546-1.667-0.821-3.002-0.821c-1.377,0-2.456,0.293-3.235,0.879
		c-0.501,0.376-0.752,0.879-0.752,1.509c0,0.574,0.234,1.066,0.705,1.476c0.597,0.52,2.049,1.061,4.355,1.625
		c2.306,0.563,4.012,1.146,5.116,1.75c1.104,0.603,1.97,1.426,2.594,2.471c0.625,1.044,0.937,2.334,0.937,3.871
		c0,1.392-0.373,2.696-1.121,3.913c-0.748,1.218-1.804,2.12-3.171,2.711s-3.069,0.886-5.106,0.886c-2.969,0-5.247-0.711-6.839-2.13
		C81.394,46.197,80.443,44.128,80.133,41.408z"/>
</g>
<g>
	<path fill="#FFFFFF" d="M103.223,25.011h9.385c1.857,0,3.24,0.08,4.154,0.24c0.912,0.162,1.729,0.495,2.451,1.003
		c0.721,0.508,1.319,1.187,1.801,2.032c0.479,0.845,0.722,1.793,0.722,2.842c0,1.14-0.296,2.185-0.886,3.135
		c-0.592,0.95-1.391,1.663-2.401,2.14c1.427,0.431,2.522,1.164,3.29,2.203c0.766,1.04,1.15,2.262,1.15,3.666
		c0,1.105-0.248,2.179-0.746,3.224c-0.494,1.046-1.173,1.881-2.033,2.503c-0.859,0.626-1.919,1.012-3.178,1.156
		c-0.791,0.087-2.695,0.143-5.717,0.164h-7.992V25.011L103.223,25.011z M107.963,29.056v5.621h3.105
		c1.848,0,2.997-0.027,3.444-0.083c0.812-0.099,1.45-0.391,1.912-0.871c0.466-0.479,0.698-1.113,0.698-1.896
		c0-0.752-0.199-1.363-0.602-1.833c-0.398-0.47-0.994-0.755-1.785-0.854c-0.469-0.055-1.82-0.082-4.051-0.082h-2.723V29.056z
		 M107.963,38.723v6.483h4.395c1.711,0,2.797-0.049,3.256-0.148c0.707-0.133,1.281-0.456,1.726-0.969
		c0.442-0.511,0.665-1.199,0.665-2.059c0-0.727-0.173-1.345-0.514-1.853c-0.344-0.507-0.838-0.876-1.486-1.107
		c-0.645-0.23-2.048-0.346-4.209-0.346h-3.832V38.723z"/>
</g>
<path fill="#FFFFFF" d="M137.177,13.102c0-1.854,1.444-3.352,3.236-3.352c1.79,0,3.235,1.499,3.235,3.352
	c0,1.854-1.445,3.352-3.235,3.352C138.621,16.454,137.177,14.956,137.177,13.102 M138.968,18.308
	c-0.551,0.999-0.138,3.78-1.035,9.271c-0.205,1.354-0.686,2.781-0.686,2.781c-0.964,3.85-6.889,13.691-8.749,16.972
	c-1.033,1.856,1.17,3.425,2.549,1.497c1.789-2.424,7.574-10.91,8.541-12.336c0.412-0.57,1.307-0.57,1.722,0.215
	c1.307,2.424,5.301,9.557,6.198,11.196c0.895,1.64,3.167,0.854,2.616-1.141c-0.688-2.496-7.096-15.688-5.717-18.257
	c0.689-1.212,2.411,1.141,4.616,3.422c0.619,0.643,1.375,0.857,1.721,0.145c0.274-0.571,0-1.213-0.688-2.069
	c-2.343-2.851-6.68-9.769-7.713-11.265C141.24,17.095,139.654,17.095,138.968,18.308 M151.984,32.713
	c-0.554-0.714-1.514,0.214-0.759,0.998c2.204,2.281,12.396,12.836,14.05,14.478c0.551,0.568,1.032-0.285,0.481-0.929
	C165.001,46.335,154.531,35.781,151.984,32.713"/>
</svg>
