<svg version="1.1" xmlns="http://www.w3.org/2000/svg" xmlns:xlink="http://www.w3.org/1999/xlink">

  <defs>
    <style>
      g {
        display: none;
      }
      g:target,
      g:target g {
        display: inline;
      }
      .white {
        color: #ffffff;
      }
      .gray {
        color: #777777;
      }
    </style>

    <symbol id="icon-menu" viewBox="-453.5 453.5 50 50">
      <title>Icon-Menu</title>
      <path fill="currentColor" d="M-448.5 461.277h40v1.193h-40zM-448.5 477.904h40v1.195h-40zM-448.5 494.535h40v1.188h-40z"/>
    </symbol>

    <symbol id="icon-search" viewBox="-453.5 453.5 50 50">
      <title>Icon-Search</title>
      <path
        fill="currentColor"
        d="M-421.332 458.5c-3.434 0-6.65 1.338-9.072 3.76a12.755 12.755 0 0 0-3.758 9.072c0 3.232 1.2 6.279 3.368 8.643l-3.408 3.416-1.882-1.882-12.416 12.416 4.577 4.575 12.416-12.414-1.884-1.885 3.417-3.416a12.651 12.651 0 0 0 8.643 3.376c3.433 0 6.646-1.338 9.067-3.763a12.718 12.718 0 0 0 3.764-9.066c0-3.427-1.339-6.65-3.764-9.072a12.729 12.729 0 0 0-9.068-3.76m-22.591 38.374l-2.946-2.949 10.784-10.793 2.946 2.954-10.784 10.788zm30.85-17.285c-2.204 2.212-5.134 3.423-8.259 3.423s-6.055-1.211-8.257-3.423c-2.206-2.206-3.422-5.139-3.422-8.257s1.217-6.052 3.423-8.257c2.201-2.206 5.131-3.423 8.256-3.423s6.055 1.216 8.257 3.421a11.586 11.586 0 0 1 3.423 8.259c0 3.117-1.211 6.051-3.421 8.257"/>
    </symbol>

    <symbol id="icon-phone" viewBox="-453.5 453.5 50 50">
      <title>Icon-Phone</title>
      <path
        fill="currentColor"
        d="M-416.443 481.491l1.144-.205c-1.46-7.91-7.767-14.083-15.709-15.364l-.181 1.146c7.453 1.2 13.378 6.996 14.746 14.423zM-429.805 459.117l-.189 1.142c10.293 1.694 18.469 9.729 20.352 19.983l1.143-.2c-1.976-10.745-10.53-19.149-21.306-20.925zM-425.158 484.499c-.275.587-1.169 2.528-1.169 2.528l-.491 1.035c-5.383-1.692-11.045-9.383-11.993-11.807l4.206-1.962-5.171-11.095-.523.244c-.212.1-.829.381-1.551.703-1.191.539-2.673 1.205-3.103 1.416-2.807 1.369-4.134 4.293-3.301 7.272 1.243 4.462 3.646 8.782 7.342 13.228 1.911 2.285 4.159 4.34 6.875 6.287 3.591 2.57 7.04 4.297 10.53 5.291a6.22 6.22 0 0 0 1.731.25c.644 0 1.303-.111 1.965-.314 2.658-.852 3.709-3.038 4.61-5.387l1.267-3.097-10.976-5.116-.248.524zm9.73 5.176l-.85 2.087c-.836 2.156-1.703 4.012-3.888 4.706a5.141 5.141 0 0 1-3.024.062c-3.371-.959-6.692-2.633-10.171-5.116-2.639-1.89-4.816-3.882-6.66-6.093-3.644-4.375-5.906-8.438-7.12-12.797-.675-2.426.409-4.808 2.695-5.924.415-.199 1.889-.86 3.066-1.396l1.043-.47 4.19 9-4.006 1.869.076.438c.413 2.388 7.289 11.731 13.431 13.274l.461.117.906-1.92s.557-1.201.938-2l8.913 4.163z"/>
    </symbol>

    <symbol id="icon-mail" viewBox="-453.5 453.5 50 50">
      <title>Icon-Mail</title>
      <path
        fill="currentColor"
        d="M-448.5 491.311h40V465.69h-40v25.621zm20-7.769l4.465-3.798 13.279 10.408h-35.488l13.281-10.408 4.463 3.798zm5.366-4.562l13.478-11.461v22.02l-13.478-10.559zm-5.366 3.043l-17.842-15.174h35.685l-17.843 15.174zm-5.363-3.043l-13.477 10.559v-22.02l13.477 11.461z"/>
    </symbol>

    <symbol id="icon-at" viewBox="-453.5 453.5 50 50">
      <title>Icon-At</title>
      <path
        fill="currentColor"
        d="M-428.5 458.499c-11.025 0-20 8.976-20 20.001 0 11.035 8.975 20.001 20 20.001 11.034 0 20-8.966 20-20.001 0-11.025-8.966-20.001-20-20.001zm0 38.849c-10.389 0-18.839-8.459-18.839-18.848s8.45-18.838 18.839-18.838 18.848 8.449 18.848 18.838-8.459 18.848-18.848 18.848z"/>
      <path
        fill="currentColor"
        d="M-427.904 468.619c-4.336 0-9.508 1.718-9.508 9.9 0 6.641 2.809 9.859 8.572 9.859 1.798 0 3.79-.484 5.326-1.305a.425.425 0 0 0 .231-.273.488.488 0 0 0-.056-.386l-.143-.239c-.117-.189-.271-.23-.369-.23a.47.47 0 0 0-.283.103c-1.02.615-2.863 1.239-4.708 1.239-4.884 0-7.358-2.946-7.358-8.768 0-5.927 2.711-8.806 8.295-8.806 4.709 0 7.103 2.761 7.103 8.21 0 1.729-.405 3.799-2.31 3.799-1.688 0-2.049-1.178-2.066-2.942v-4.222c0-.248-.133-.383-.391-.408-1.043-.103-1.906-.18-2.714-.18-2.612 0-4.114 1.612-4.114 4.432 0 2.931 1.115 4.414 3.32 4.414 1.445 0 2.666-1.006 3.154-1.463.477.982 1.393 1.463 2.811 1.463 2.272 0 3.523-1.74 3.523-4.893.001-7.693-4.516-9.304-8.315-9.304zm-.975 13.104c-.68 0-1.212-.195-1.587-.586-.522-.533-.754-1.425-.719-2.729.039-1.526.586-3.346 2.964-3.346.735 0 1.169.035 1.851.105v3.042c0 .653 0 1.325.082 1.955-.705.77-1.733 1.559-2.591 1.559z"/>
    </symbol>

    <symbol id="button-next" viewBox="0 0 50 50">
      <title>Button-Next</title>
      <path
        fill="currentColor"
        d="M25 .5C11.495.5.5 11.495.5 25 .5 38.515 11.495 49.5 25 49.5c13.516 0 24.5-10.984 24.5-24.5C49.5 11.495 38.515.5 25 .5zm0 47.588C12.273 48.088 1.922 37.727 1.922 25 1.922 12.275 12.273 1.923 25 1.923S48.088 12.275 48.088 25c0 12.727-10.361 23.088-23.088 23.088z"/><path fill="currentColor" d="M27.876 18.564l6.575 5.729H12.567v1.412h21.884l-6.575 5.731.929 1.07L37.432 25l-8.627-7.505z"/>
    </symbol>

    <symbol id="button-prev" viewBox="-453.5 453.5 50 50">
      <title>Button-Prev</title>
      <path
        fill="currentColor"
        d="M-428.5 454c-13.506 0-24.5 10.996-24.5 24.5 0 13.513 10.994 24.5 24.5 24.5 13.517 0 24.5-10.987 24.5-24.5 0-13.504-10.983-24.5-24.5-24.5zm0 47.584c-12.727 0-23.078-10.357-23.078-23.084s10.352-23.08 23.078-23.08 23.088 10.354 23.088 23.08-10.361 23.084-23.088 23.084z"/><path d="M-431.915 472.064l-.93-1.07-8.635 7.506 8.635 7.508.93-1.076-6.583-5.724h21.889v-1.416h-21.889z"/>
    </symbol>
    <symbol id="arrow-right" viewBox="0 0 26.5 16">
      <title>Button-Next</title>
      <path
        fill="currentColor"
        d="M16.324 1.139l7.016 6.108H0v1.502h23.34l-7.016 6.112.987 1.139 9.212-8.001L17.311 0z"/>
    </symbol>
    <symbol id="arrow-up" viewBox="0 0 16 26.5">
      <title>Button-Next</title>
      <path
        fill="currentColor"
        d="M1.139 10.2l6.108-7.016v23.339h1.502V3.184l6.112 7.016L16 9.213 7.999 0 0 9.213z"/>
    </symbol>
  </defs>
  <!-- <g id="language-passive">
    <use class="black" xlink:href="#language"/>
  </g> -->
</svg>
