<svg version="1.1" xmlns="http://www.w3.org/2000/svg" xmlns:xlink="http://www.w3.org/1999/xlink">

  <defs>
    <style>
      g {
        display: none;
      }
      g:target,
      g:target g {
        display: inline;
      }
      .white {
        color: #ffffff;
      }
      .gray {
        color: #777777;
      }
    </style>

    <symbol id="icon-menu" viewBox="-453.5 453.5 50 50">
      <title>Icon-Menu</title>
      <path fill="currentColor" d="M-448.5 461.277h40v1.193h-40zM-448.5 477.904h40v1.195h-40zM-448.5 494.535h40v1.188h-40z"/>
    </symbol>

    <symbol id="facebook" viewBox="-347.333 558.833 50 50">
      <title>Facebook</title>
      <path fill="currentColor" d="M-297.833 562.035v43.586a2.7 2.7 0 0 1-2.702 2.701h-12.491v-18.965h6.366l.952-7.394h-7.328v-4.726c0-2.144.591-3.598 3.664-3.598h3.916v-6.617c-.679-.088-2.997-.296-5.71-.296-5.644 0-9.515 3.445-9.515 9.778v5.457h-6.388v7.395h6.388v18.977h-23.45a2.708 2.708 0 0 1-2.702-2.701v-43.598a2.707 2.707 0 0 1 2.702-2.701h43.585a2.71 2.71 0 0 1 2.713 2.702z"/>
    </symbol>

  </defs>
  <!-- <g id="language-passive"> <use class="black" xlink:href="#language"/> </g> -->
</svg>
